<svg width="5320" height="2175" viewBox="0 0 5320 2175" fill="none" xmlns="http://www.w3.org/2000/svg">
<path d="M5304.37 1328.6C5292.35 1303.91 5286.15 1271.59 5271.22 1249.08C5258.83 1230.38 5242.25 1214.59 5230.96 1195.16C5222.39 1180.82 5216.93 1164.3 5201.63 1156.49C5180.31 1145.6 5158.45 1137.43 5135.68 1129.8C5116.19 1123.26 5102.89 1111.46 5094.87 1097.3H4353.06C4305.33 1097.3 4266.71 1135.79 4266.71 1183.36V1185.17C4266.71 1232.74 4305.33 1271.23 4353.06 1271.23H5151.71C5067.18 1684.81 4690.63 2000.53 4242.84 1988.54C3761.9 1975.65 3373.14 1582.05 3365.85 1102.57C3358.2 599.849 3766.82 189.358 4269.44 189.358C4491.51 189.358 4695 269.06 4852.58 401.593C4887.19 430.642 4938.38 428.1 4970.45 396.147L4971.72 394.876C5007.79 358.747 5005.42 299.561 4966.44 266.518C4776.61 106.026 4530.31 9.43971 4261.42 10.8921C3675.92 14.1601 3195.52 488.557 3187.32 1071.89C3178.76 1673.55 3665.71 2164.47 4267.62 2164.47C4776.25 2164.47 5202.54 1818.97 5317.49 1345.67C5312.21 1340.95 5307.65 1335.32 5304.37 1328.6Z" fill="#2B60F0"/>
<path d="M3663.89 421.927C3824.39 277.593 4036.8 189.54 4269.44 189.54C4491.51 189.54 4695 269.241 4852.58 401.775C4887.19 430.823 4938.38 428.282 4970.45 396.328L4971.72 395.057C5007.79 358.928 5005.42 299.742 4966.44 266.7C4776.61 106.026 4530.31 9.43971 4261.42 10.8921C3971.04 12.5261 3706.34 130.172 3512.5 319.35C3566.97 346.22 3618.53 387.432 3663.89 421.927Z" fill="#2B60F0"/>
<path fill-rule="evenodd" clip-rule="evenodd" d="M2278.64 11.0744C1898.08 11.0744 1905.36 375.087 1905.36 375.088V1914.83C1905.36 1936.26 1895.34 1956.96 1877.49 1968.57C1835.22 1996.17 1788.95 1962.58 1788.95 1923.73V406.496H1788.59C1782.39 181.734 1596.39 1.63397 1369.4 2.36018C1129.85 3.08639 939.109 209.693 954.958 447.709C954.958 448.052 954.999 448.394 955.041 448.756C955.089 449.161 955.14 449.59 955.14 450.069V767.241C955.14 767.302 955.039 767.362 954.938 767.423C954.735 767.544 954.533 767.665 955.14 767.786V1005.8C955.14 1020.33 947.853 1033.94 936.558 1044.11C925.446 1054.28 910.507 1060.81 895.205 1060.81C864.599 1060.81 838.731 1034.85 838.731 1005.8V464.23V461.688C838.184 463.141 837.273 464.593 836.18 465.864C836.111 465.933 836.068 466.003 836.031 466.062C835.971 466.158 835.928 466.227 835.816 466.227C835.725 466.59 835.634 467.543 835.543 468.496C835.452 469.45 835.36 470.403 835.269 470.766L835.998 474.397H833.812L836.545 445.167L836.727 444.985L836.18 463.685L835.998 464.775H836.18V465.138C836.18 464.956 836.18 464.593 836.362 464.411C836.362 464.069 836.403 463.726 836.446 463.364L836.446 463.363C836.494 462.958 836.545 462.53 836.545 462.051C836.76 460.01 837.04 458.159 837.307 456.387L837.307 456.386L837.308 456.385L837.308 456.384C837.492 455.162 837.671 453.977 837.82 452.792C838.184 450.977 838.366 449.161 838.549 447.164C838.549 446.982 838.594 446.801 838.64 446.619C838.685 446.438 838.731 446.256 838.731 446.075C838.913 445.167 838.913 444.078 838.913 442.807V442.081C838.913 440.953 838.339 439.825 837.701 438.57L837.7 438.57C837.619 438.411 837.537 438.25 837.456 438.086L838.913 421.202V431.006C839.095 426.649 839.095 421.928 839.095 417.571C839.095 416.375 839.119 415.908 839.15 415.317C839.204 414.292 839.277 412.893 839.277 406.678C833.994 184.276 649.269 0 421.734 0C194.198 0 9.65514 184.276 4.37208 406.496C4.25287 412.793 4.3677 414.114 4.46131 415.191C4.51074 415.759 4.55426 416.26 4.55426 417.389C4.55426 419.568 4.5998 421.837 4.64534 424.107C4.69089 426.376 4.73643 428.646 4.73643 430.824V2084.04C4.73643 2134.15 45.5435 2175 96.0058 2175H97.8275C148.108 2175 189.097 2134.33 189.097 2084.04V418.479C189.097 289.939 292.936 185.728 421.734 185.728C550.531 185.728 654.37 289.939 654.37 418.479V984.015C653.824 989.643 653.641 995.453 653.641 1001.26C653.641 1134.16 761.671 1244 895.023 1244C961.698 1244 1022.54 1215.86 1067 1171.92C1111.26 1127.99 1138.95 1068.44 1138.95 1005.62V418.479C1138.95 289.939 1242.79 184.457 1371.59 184.457C1497.29 184.457 1599.13 280.862 1604.05 406.496H1604.23V1885.06L1603.13 1923.73C1603.13 2061.89 1715.9 2168.83 1853.26 2164.11C1983.15 2159.75 2089.18 2045.19 2089.18 1915.56V296.715L2089.72 293.4V371.094C2089.72 281.856 2155.64 206.244 2241.04 190.536L2265.86 187.721C2268.44 187.607 2271.03 187.548 2273.63 187.544H2666.67V188.814H2671.04C3169.1 188.814 3577.18 591.316 3577.18 1087.68C3577.18 1576.21 3184.53 1973.82 2697.27 1986.25V1986.19H2435.67C2387.21 1986.19 2348.05 2025.76 2348.05 2074.42V2076.24C2348.05 2125.07 2387.21 2164.47 2435.67 2164.47H2666.67V2164.65H2673.04C3269.67 2164.65 3755.89 1682.08 3755.89 1087.5C3755.89 492.914 3270.58 10.8921 2673.96 10.8921H2666.67V11.2568H2278.64V11.0744ZM4.73643 430.824V418.479C4.73643 435.363 5.6473 452.066 7.46905 468.406C5.82948 456.06 5.10078 443.533 4.73643 430.824ZM838.731 464.23C838.731 464.593 838.731 465.319 838.549 465.864V464.956C838.366 465.138 838.549 464.593 838.549 464.593C838.366 464.593 838.731 464.048 838.731 464.23ZM0.18218 431.095C0.136635 431.005 0.091091 430.914 0 430.823V418.477C0 422.667 0.168411 426.689 0.343308 430.865L0.364349 431.368C0.273265 431.277 0.227722 431.186 0.18218 431.095ZM0.364588 431.369C0.721348 443.635 1.42743 455.727 2.65388 467.645C2.67625 467.899 2.70249 468.152 2.73286 468.405C2.70629 468.152 2.67997 467.899 2.65388 467.645C2.29221 463.547 2.94209 459.428 3.59523 455.289C4.84149 447.39 6.09957 439.417 0.364588 431.369Z" fill="#333333"/>
<path d="M5282.51 1282.67C5257.01 1244.54 5227.86 1209.32 5200.17 1172.83C5176.49 1141.78 5159.18 1128.89 5122.38 1116.55C5109.45 1112.19 5099.43 1105.47 5091.59 1097.49H4353.06C4305.33 1097.49 4266.71 1135.97 4266.71 1183.54V1185.36C4266.71 1232.92 4305.33 1271.41 4353.06 1271.41H5151.71C5067.18 1684.99 4690.63 2000.71 4242.84 1988.73C3761.9 1975.84 3373.14 1582.23 3365.85 1102.75C3364.21 995.816 3381.52 893.239 3414.5 797.742C3401.2 781.765 3389.9 765.789 3380.98 751.265C3350.19 701.338 3326.87 645.782 3311.38 588.412C3234.51 733.472 3190.06 897.959 3187.51 1072.07C3178.94 1673.73 3665.9 2164.65 4267.8 2164.65C4775.34 2164.65 5201.08 1820.61 5316.94 1348.75" fill="#2B60F0"/>
<path d="M5316.76 1348.75C5316.76 1348.75 5365.95 1096.21 5081.03 1097.49L5316.76 1348.75Z" fill="#2B60F0"/>
<path d="M2759.39 1371.63H2632.78C2616.93 1371.63 2604 1361.46 2604 1348.94V1348.39C2604 1335.86 2616.93 1325.7 2632.78 1325.7H2759.39C2775.24 1325.7 2788.18 1335.86 2788.18 1348.39V1348.94C2788.18 1361.46 2775.24 1371.63 2759.39 1371.63Z" fill="#2B60F0"/>
<path d="M2843.56 730.203C2874.35 730.203 2899.31 755.076 2899.31 785.759V1379.98C2899.31 1410.66 2874.35 1435.54 2843.56 1435.54H2538.05C2507.27 1435.54 2482.31 1410.66 2482.31 1379.98V785.759C2482.31 755.076 2507.27 730.203 2538.05 730.203H2843.56ZM2843.56 643.24H2538.05C2459.17 643.24 2395.05 707.146 2395.05 785.759V1379.98C2395.05 1458.59 2459.17 1522.5 2538.05 1522.5H2843.56C2922.44 1522.5 2986.57 1458.59 2986.57 1379.98V785.759C2986.57 707.328 2922.44 643.24 2843.56 643.24Z" fill="#333333"/>
</svg>
